<?xml version="1.0" encoding="UTF-8" standalone="no"?>
<!-- Created with Inkscape (http://www.inkscape.org/) -->

<svg
   width="119.94471mm"
   height="39.362133mm"
   viewBox="0 0 119.94471 39.362133"
   version="1.1"
   id="svg1"
   xmlns="http://www.w3.org/2000/svg"
   xmlns:svg="http://www.w3.org/2000/svg">
  <defs
     id="defs1" />
  <g
     id="layer1"
     transform="translate(-40.227212,-139.40785)">
    <path
       style="font-size:85.3333px;font-family:Freeman;-inkscape-font-specification:Freeman;letter-spacing:3px;white-space:pre;fill:#de747f;stroke-width:3.365;stroke-linecap:round;stroke-linejoin:round"
       d="m 86.366628,167.54429 v -16.93332 h 4.01885 q 3.00284,0 4.53813,1.35466 1.55786,1.33209 1.55786,3.95111 0,2.6416 -1.58044,4.064 -1.55787,1.39982 -4.51555,1.39982 h -0.69992 v 6.16373 z m 3.31893,-8.91822 h 0.94827 q 1.2192,0 1.87396,-0.67733 0.65475,-0.69991 0.65475,-1.96427 0,-2.61902 -2.52871,-2.61902 h -0.94827 z m 9.57649,8.91822 v -16.93332 h 3.318932 v 16.93332 z m 6.822022,0 v -16.93332 h 3.31893 v 8.08284 l 4.17689,-8.42151 2.75448,1.10631 -3.5447,6.9088 3.92853,8.51182 -3.048,1.10631 -3.09316,-7.06685 -1.17404,2.28036 v 4.42524 z m 17.50129,0.36125 q -1.44498,0 -2.59645,-0.54187 -1.15147,-0.56444 -1.80622,-1.69333 -0.65476,-1.15147 -0.65476,-2.91254 l 2.98027,-0.33866 q 0,1.24177 0.54187,2.00942 0.56444,0.76764 1.60302,0.76764 0.85795,0 1.28693,-0.49671 0.42898,-0.51929 0.42898,-1.37724 0,-0.92569 -0.47413,-1.44498 -0.47414,-0.51929 -1.2192,-0.94827 l -2.05458,-1.19662 q -1.19662,-0.69991 -2.032,-1.85137 -0.8128,-1.17405 -0.8128,-2.82222 0,-1.35467 0.58702,-2.41583 0.6096,-1.08373 1.73849,-1.71591 1.15147,-0.63217 2.73191,-0.63217 2.12231,0 3.40925,1.2192 1.30951,1.2192 1.35466,3.65759 l -2.98026,0.65476 q 0,-2.82222 -1.85138,-2.82222 -0.76765,0 -1.2192,0.47413 -0.42898,0.47413 -0.42898,1.30951 0,0.8128 0.4064,1.33209 0.42898,0.51929 1.19662,0.97084 l 2.032,1.2192 q 1.39982,0.83538 2.19005,1.98685 0.8128,1.12889 0.8128,2.79964 0,1.51271 -0.65476,2.59644 -0.65475,1.08374 -1.8288,1.64818 -1.15147,0.56445 -2.68675,0.56445 z m 15.17577,-0.0452 -0.72249,-3.40924 h -3.63502 l -0.51929,3.09315 h -3.27377 l 3.45439,-16.73012 4.08658,-0.47414 3.92853,17.20426 z m -2.66418,-13.93048 -0.18062,1.10631 -1.24178,6.66044 h 2.93511 l -1.30951,-6.68302 z m 8.4702,13.61439 v -16.93332 h 3.31893 v 16.93332 z m 6.82202,0 v -16.93332 h 3.29635 v 14.15626 h 5.4864 l -0.33867,2.77706 z"
       id="text1"
       aria-label="PIKSAIL" />
    <g
       id="g2"
       transform="matrix(0.35285554,0,0,0.35285554,34.728088,136.139)">
      <path
         id="path11-6"
         style="display:inline;fill:#3461c1;fill-opacity:1;fill-rule:nonzero;stroke:none;stroke-width:4.065;stroke-linecap:round;stroke-linejoin:round;stroke-dasharray:none;stroke-opacity:1"
         d="m 119.49845,68.769773 c 0,0 -16.39086,5.87714 -25.141906,5.96894 -9.35495,0.0981 -18.02755,-3.10667 -26.67935,-5.96894 -6.33429,-2.09557 -16.176095,-6.3123 -24.870583,-6.42113 -9.444683,-0.11822 -27.221984,6.42113 -27.221984,6.42113 l 52.047357,52.047347 z" />
      <path
         id="path2-0-6"
         style="fill:#de747f;stroke:none;stroke-width:4.093;stroke-linecap:round;stroke-linejoin:round;stroke-dasharray:none;stroke-opacity:1"
         d="M 67.841944,9.2639828 V 63.187313 c 0.0391,0.013 0.0919,0.0332 0.13074,0.046 8.65179,2.86226 17.32457,6.06673 26.67951,5.96863 8.169416,-0.0857 22.489996,-5.04299 24.424866,-5.7242 l 1.50895,-1.50792 z" />
    </g>
  </g>
</svg>
