<?xml version="1.0" encoding="utf-8"?>
<!-- Generator: Adobe Illustrator 24.2.1, SVG Export Plug-In . SVG Version: 6.00 Build 0)  -->
<svg version="1.1" id="Calque_1" xmlns="http://www.w3.org/2000/svg" xmlns:xlink="http://www.w3.org/1999/xlink" x="0px" y="0px"
	 viewBox="0 0 578.18 305.69" style="enable-background:new 0 0 578.18 305.69;" xml:space="preserve">
<style type="text/css">
	.st0{fill:#404F63;}
	.st1{fill:#FF4637;}
	.st2{fill:#FFFFFF;}
</style>
<g>
	<g>
		<path class="st0" d="M149.4,19.47c5.96,0,11.42,0.78,16.38,2.35c4.96,1.57,9.19,3.87,12.7,6.9c3.5,3.03,6.24,6.74,8.23,11.13
			c1.98,4.39,2.98,9.41,2.98,15.05c0,5.64-0.99,10.66-2.98,15.05c-1.99,4.39-4.73,8.1-8.23,11.13c-3.5,3.03-7.73,5.33-12.7,6.9
			c-4.96,1.57-10.42,2.35-16.38,2.35H135.6v38.87h-23.51V19.47H149.4z M135.6,69.48h14.26c4.7,0,8.57-1.25,11.6-3.76
			c3.03-2.51,4.55-6.06,4.55-10.66c0-4.6-1.52-8.15-4.55-10.66c-3.03-2.51-6.9-3.76-11.6-3.76H135.6V69.48z"/>
		<path class="st0" d="M231.86,19.47V129.2h-22.89V19.47H231.86z"/>
		<path class="st0" d="M303.12,51.77h22.89v77.44h-22.89v-9.88c-2.3,3.66-5.36,6.56-9.17,8.7c-3.82,2.14-8.28,3.21-13.4,3.21
			c-8.88,0-15.83-2.82-20.85-8.46c-5.02-5.64-7.52-13.38-7.52-23.2V51.77h22.89v42.32c0,5.12,1.18,9.09,3.53,11.91
			c2.35,2.82,5.72,4.23,10.11,4.23s7.89-1.54,10.5-4.62c2.61-3.08,3.92-7.39,3.92-12.93V51.77z"/>
		<path class="st0" d="M368.84,129.2h-22.89V51.77h22.89v9.72c2.09-3.55,4.96-6.4,8.62-8.54c3.66-2.14,8.05-3.21,13.17-3.21
			c5.33,0,9.93,1.18,13.79,3.53c3.87,2.35,6.84,5.67,8.93,9.95c2.4-4.08,5.75-7.34,10.03-9.8c4.28-2.45,9.25-3.68,14.89-3.68
			c8.88,0,15.73,2.77,20.53,8.31c4.81,5.54,7.21,13.06,7.21,22.57v48.59h-22.89V85.94c0-4.81-1.07-8.57-3.21-11.29
			c-2.14-2.72-5.2-4.08-9.17-4.08c-3.97,0-7.16,1.49-9.56,4.47c-2.41,2.98-3.66,7.08-3.76,12.3v41.85h-22.89V86.25
			c0-5.02-1.05-8.88-3.14-11.6c-2.09-2.72-5.12-4.08-9.09-4.08c-4.08,0-7.34,1.54-9.8,4.62c-2.46,3.08-3.68,7.29-3.68,12.62V129.2z"
			/>
		<path class="st0" d="M96.1,233.17c-3.24,6.38-7.92,11.39-14.03,15.05c-6.11,3.66-13.4,5.49-21.87,5.49
			c-6.06,0-11.6-0.99-16.62-2.98c-5.02-1.98-9.33-4.78-12.93-8.39s-6.43-7.92-8.46-12.93c-2.04-5.02-3.06-10.5-3.06-16.46
			c0-5.85,1.02-11.26,3.06-16.22c2.04-4.96,4.86-9.27,8.46-12.93c3.61-3.66,7.84-6.51,12.7-8.54s10.16-3.06,15.91-3.06
			c5.85,0,11.21,1.02,16.07,3.06c4.86,2.04,9.01,4.89,12.46,8.54c3.45,3.66,6.14,8.02,8.07,13.09c1.93,5.07,2.9,10.63,2.9,16.69
			c0,1.36-0.03,2.51-0.08,3.45c-0.05,0.94-0.13,1.67-0.23,2.19h-56.9c0.21,2.3,0.84,4.39,1.88,6.27c1.04,1.88,2.43,3.53,4.15,4.94
			c1.72,1.41,3.66,2.51,5.8,3.29c2.14,0.78,4.41,1.18,6.82,1.18c4.28,0,7.68-0.84,10.19-2.51c2.51-1.67,4.65-3.97,6.43-6.9
			L96.1,233.17z M76.35,204.32c-0.52-4.18-2.35-7.6-5.49-10.27c-3.14-2.66-7.05-4-11.76-4c-2.3,0-4.44,0.39-6.43,1.18
			c-1.99,0.78-3.76,1.86-5.33,3.21c-1.57,1.36-2.85,2.88-3.84,4.55c-0.99,1.67-1.59,3.45-1.8,5.33H76.35z M47.82,161.84L63.5,138.8
			h23.67l-20.38,23.04H47.82z"/>
		<path class="st0" d="M134.96,251.66h-22.89v-77.44h22.89v9.88c2.4-3.76,5.51-6.69,9.33-8.78c3.81-2.09,8.33-3.14,13.56-3.14
			c8.88,0,15.86,2.82,20.93,8.46c5.07,5.64,7.6,13.38,7.6,23.2v47.81h-22.89v-42.48c0-5.12-1.2-9.06-3.6-11.83
			c-2.41-2.77-5.85-4.15-10.35-4.15c-4.39,0-7.92,1.54-10.58,4.62c-2.66,3.08-4,7.34-4,12.78V251.66z"/>
		<path class="st0" d="M274.89,233.17c-3.24,6.38-7.92,11.39-14.03,15.05c-6.11,3.66-13.4,5.49-21.87,5.49
			c-6.06,0-11.6-0.99-16.62-2.98c-5.02-1.98-9.33-4.78-12.93-8.39c-3.61-3.61-6.43-7.92-8.46-12.93c-2.04-5.02-3.06-10.5-3.06-16.46
			c0-5.85,1.02-11.26,3.06-16.22c2.04-4.96,4.86-9.27,8.46-12.93c3.6-3.66,7.84-6.51,12.7-8.54c4.86-2.04,10.16-3.06,15.91-3.06
			c5.85,0,11.21,1.02,16.07,3.06c4.86,2.04,9.01,4.89,12.46,8.54c3.45,3.66,6.14,8.02,8.07,13.09c1.93,5.07,2.9,10.63,2.9,16.69
			c0,1.36-0.03,2.51-0.08,3.45c-0.05,0.94-0.13,1.67-0.24,2.19h-56.9c0.21,2.3,0.84,4.39,1.88,6.27c1.04,1.88,2.43,3.53,4.15,4.94
			c1.72,1.41,3.66,2.51,5.8,3.29c2.14,0.78,4.41,1.18,6.82,1.18c4.28,0,7.68-0.84,10.19-2.51c2.51-1.67,4.65-3.97,6.43-6.9
			L274.89,233.17z M255.14,204.32c-0.52-4.18-2.35-7.6-5.49-10.27c-3.13-2.66-7.05-4-11.76-4c-2.3,0-4.44,0.39-6.43,1.18
			c-1.99,0.78-3.76,1.86-5.33,3.21c-1.57,1.36-2.85,2.88-3.84,4.55c-0.99,1.67-1.59,3.45-1.8,5.33H255.14z"/>
		<path class="st0" d="M339.31,196.49c-1.25-0.63-3.19-0.94-5.8-0.94c-6.38,0-11.34,2.19-14.89,6.58
			c-3.55,4.39-5.33,10.4-5.33,18.03v31.51h-22.73v-77.44h22.57v12.7c2.09-4.49,5.07-8.02,8.93-10.58c3.87-2.56,8.31-3.84,13.32-3.84
			c0.84,0,1.65,0.05,2.43,0.16c0.78,0.11,1.28,0.21,1.49,0.31V196.49z"/>
		<path class="st0" d="M407.44,239.44c-2.41,3.55-5.75,6.35-10.03,8.39c-4.29,2.04-8.99,3.06-14.11,3.06
			c-5.23,0-10.09-0.99-14.58-2.98c-4.49-1.98-8.36-4.7-11.6-8.15c-3.24-3.45-5.78-7.55-7.6-12.31c-1.83-4.75-2.74-9.9-2.74-15.44
			c0-5.64,0.91-10.89,2.74-15.75c1.83-4.86,4.39-9.06,7.68-12.62c3.29-3.55,7.16-6.35,11.6-8.39c4.44-2.04,9.27-3.06,14.5-3.06
			c5.22,0,10.01,1.07,14.34,3.21c4.33,2.14,7.6,5.09,9.8,8.86v-10.03h22.57v72.42c0,6.06-0.94,11.6-2.82,16.62
			c-1.88,5.02-4.65,9.33-8.31,12.93c-3.66,3.61-8.13,6.4-13.4,8.39c-5.28,1.98-11.31,2.98-18.1,2.98c-9.2,0-17.16-1.83-23.91-5.49
			c-6.74-3.66-11.63-8.68-14.66-15.05L367,256.21c2.09,3.86,4.91,6.84,8.46,8.93c3.55,2.09,7.52,3.14,11.91,3.14
			c6.27,0,11.18-1.88,14.73-5.64c3.55-3.76,5.33-9.09,5.33-15.99V239.44z M408.23,212.01c0-2.72-0.5-5.28-1.49-7.68
			c-0.99-2.4-2.38-4.49-4.15-6.27c-1.78-1.78-3.84-3.16-6.19-4.15c-2.35-0.99-4.83-1.49-7.45-1.49c-2.61,0-5.09,0.5-7.45,1.49
			c-2.35,0.99-4.39,2.38-6.11,4.15c-1.72,1.78-3.08,3.87-4.08,6.27c-0.99,2.4-1.49,4.96-1.49,7.68c0,2.72,0.49,5.28,1.49,7.68
			c0.99,2.41,2.35,4.49,4.08,6.27c1.72,1.78,3.76,3.16,6.11,4.15c2.35,0.99,4.83,1.49,7.45,1.49c2.61,0,5.09-0.49,7.45-1.49
			c2.35-0.99,4.41-2.38,6.19-4.15c1.78-1.78,3.16-3.86,4.15-6.27C407.73,217.28,408.23,214.72,408.23,212.01z"/>
		<path class="st0" d="M468.01,151.81c0,1.78-0.34,3.48-1.02,5.09c-0.68,1.62-1.62,3.03-2.82,4.23c-1.2,1.2-2.61,2.17-4.23,2.9
			c-1.62,0.73-3.37,1.1-5.25,1.1s-3.63-0.36-5.25-1.1c-1.62-0.73-3.03-1.7-4.23-2.9c-1.2-1.2-2.14-2.61-2.82-4.23
			c-0.68-1.62-1.02-3.32-1.02-5.09c0-1.78,0.34-3.47,1.02-5.09c0.68-1.62,1.62-3.03,2.82-4.23c1.2-1.2,2.61-2.17,4.23-2.9
			c1.62-0.73,3.37-1.1,5.25-1.1s3.63,0.37,5.25,1.1c1.62,0.73,3.03,1.7,4.23,2.9c1.2,1.2,2.14,2.61,2.82,4.23
			C467.67,148.34,468.01,150.04,468.01,151.81z M443.24,251.66v-77.44h22.89v77.44H443.24z"/>
		<path class="st0" d="M556.38,233.17c-3.24,6.38-7.92,11.39-14.03,15.05c-6.11,3.66-13.4,5.49-21.87,5.49
			c-6.06,0-11.6-0.99-16.62-2.98c-5.02-1.98-9.33-4.78-12.93-8.39s-6.43-7.92-8.46-12.93c-2.04-5.02-3.06-10.5-3.06-16.46
			c0-5.85,1.02-11.26,3.06-16.22c2.04-4.96,4.86-9.27,8.46-12.93c3.61-3.66,7.84-6.51,12.7-8.54s10.16-3.06,15.91-3.06
			c5.85,0,11.21,1.02,16.07,3.06c4.86,2.04,9.01,4.89,12.46,8.54c3.45,3.66,6.14,8.02,8.07,13.09c1.93,5.07,2.9,10.63,2.9,16.69
			c0,1.36-0.03,2.51-0.08,3.45c-0.05,0.94-0.13,1.67-0.23,2.19h-56.9c0.21,2.3,0.84,4.39,1.88,6.27c1.04,1.88,2.43,3.53,4.15,4.94
			c1.72,1.41,3.66,2.51,5.8,3.29c2.14,0.78,4.41,1.18,6.82,1.18c4.28,0,7.68-0.84,10.19-2.51c2.51-1.67,4.65-3.97,6.43-6.9
			L556.38,233.17z M536.63,204.32c-0.52-4.18-2.35-7.6-5.49-10.27c-3.14-2.66-7.05-4-11.76-4c-2.3,0-4.44,0.39-6.43,1.18
			c-1.99,0.78-3.76,1.86-5.33,3.21c-1.57,1.36-2.85,2.88-3.84,4.55c-0.99,1.67-1.59,3.45-1.8,5.33H536.63z"/>
		<g>
			<path class="st1" d="M273.42,40.27c6.19,0,11.22-4.96,11.22-11.07c0-6.11-5.02-11.07-11.22-11.07s-11.22,4.96-11.22,11.07
				C262.21,35.32,267.23,40.27,273.42,40.27"/>
		</g>
		<g>
			<path class="st1" d="M305,40.28c6.19,0,11.22-4.96,11.22-11.07c0-6.11-5.02-11.07-11.22-11.07c-6.19,0-11.22,4.96-11.22,11.07
				C293.79,35.32,298.81,40.28,305,40.28"/>
		</g>
	</g>
</g>
</svg>
